<svg width="42" height="42" viewBox="0 0 42 42" fill="none" xmlns="http://www.w3.org/2000/svg">
<path d="M13.532 27.1527H13.5339C13.5355 27.1527 13.5371 27.1524 13.5387 27.1524H35.8477C36.3969 27.1524 36.8798 26.788 37.0307 26.26L41.9526 9.03339C42.0586 8.662 41.9843 8.26274 41.752 7.95448C41.5193 7.64623 41.1557 7.46486 40.7695 7.46486H10.6942L9.81459 3.50653C9.6893 2.94353 9.19006 2.54298 8.61328 2.54298H1.23047C0.550827 2.54298 0 3.09381 0 3.77345C0 4.45309 0.550827 5.00392 1.23047 5.00392H7.62634C7.78207 5.70535 11.8356 23.9464 12.0688 24.9958C10.7612 25.5643 9.84375 26.8681 9.84375 28.3828C9.84375 30.4182 11.4998 32.0742 13.5352 32.0742H35.8477C36.5273 32.0742 37.0781 31.5234 37.0781 30.8438C37.0781 30.1641 36.5273 29.6133 35.8477 29.6133H13.5352C12.8568 29.6133 12.3047 29.0612 12.3047 28.3828C12.3047 27.7054 12.8549 27.1543 13.532 27.1527ZM39.1382 9.9258L34.9194 24.6914H14.5221L11.2408 9.9258H39.1382Z" fill="black"/>
<path d="M12.3047 35.7656C12.3047 37.801 13.9607 39.457 15.9961 39.457C18.0315 39.457 19.6875 37.801 19.6875 35.7656C19.6875 33.7302 18.0315 32.0742 15.9961 32.0742C13.9607 32.0742 12.3047 33.7302 12.3047 35.7656ZM15.9961 34.5352C16.6745 34.5352 17.2266 35.0873 17.2266 35.7656C17.2266 36.444 16.6745 36.9961 15.9961 36.9961C15.3177 36.9961 14.7656 36.444 14.7656 35.7656C14.7656 35.0873 15.3177 34.5352 15.9961 34.5352Z" fill="black"/>
<path d="M29.6953 35.7656C29.6953 37.801 31.3513 39.457 33.3867 39.457C35.4221 39.457 37.0781 37.801 37.0781 35.7656C37.0781 33.7302 35.4221 32.0742 33.3867 32.0742C31.3513 32.0742 29.6953 33.7302 29.6953 35.7656ZM33.3867 34.5352C34.065 34.5352 34.6172 35.0873 34.6172 35.7656C34.6172 36.444 34.065 36.9961 33.3867 36.9961C32.7083 36.9961 32.1562 36.444 32.1562 35.7656C32.1562 35.0873 32.7083 34.5352 33.3867 34.5352Z" fill="black"/>
</svg>
