<svg width="40" height="40" viewBox="0 0 40 40" fill="none" xmlns="http://www.w3.org/2000/svg">
<path d="M34.8438 3.29175H5.15625C2.99927 3.29248 1.25098 5.04102 1.25 7.198V32.5105C1.25098 34.6675 2.99927 36.4158 5.15625 36.4168H34.8438C37.0007 36.4158 38.749 34.6675 38.75 32.5105V7.198C38.749 5.04102 37.0007 3.29248 34.8438 3.29175ZM5.15625 4.85425H34.8438C36.1365 4.85791 37.1838 5.90527 37.1875 7.198V10.4556H2.8125V7.198C2.81616 5.90527 3.86353 4.85791 5.15625 4.85425ZM34.8438 34.8543H5.15625C3.86353 34.8506 2.81616 33.8032 2.8125 32.5105V12.0181H37.1875V32.5105C37.1838 33.8032 36.1365 34.8506 34.8438 34.8543Z" fill="black"/>
<path d="M12.4531 23.448C14.6838 23.448 16.4922 21.6394 16.4922 19.4089C16.4922 17.178 14.6838 15.3699 12.4531 15.3699C10.2224 15.3699 8.41405 17.178 8.41405 19.4089C8.41698 21.6382 10.2236 23.4448 12.4531 23.448ZM12.4531 16.9399C13.8208 16.9399 14.9297 18.0488 14.9297 19.4165C14.9297 20.7844 13.8208 21.8933 12.4531 21.8933C11.0852 21.8933 9.97655 20.7844 9.97655 19.4165C9.97704 18.0491 11.0854 16.9407 12.4531 16.9399Z" fill="black"/>
<path d="M12.4531 24.9402C10.8005 24.928 9.21436 25.5911 8.0625 26.7761C6.89062 27.9712 6.25 29.5962 6.25 31.362C6.25122 31.793 6.60034 32.1421 7.03125 32.1433H17.875C18.3059 32.1421 18.655 31.793 18.6562 31.362C18.6562 29.5962 18.0156 27.9712 16.8438 26.7761C15.6919 25.5911 14.106 24.928 12.4531 24.9402ZM7.86719 30.5808C8.00098 29.5593 8.46143 28.6084 9.17969 27.8699C10.0442 26.9949 11.2231 26.5027 12.4531 26.5027C13.6831 26.5027 14.8621 26.9949 15.7266 27.8699C16.4434 28.6094 16.9038 29.5596 17.0391 30.5808H7.86719Z" fill="black"/>
<path d="M32.9219 25.2527H23.0391C22.6077 25.2527 22.2578 25.6025 22.2578 26.0339C22.2578 26.4651 22.6077 26.8152 23.0391 26.8152H32.9219C33.3533 26.8152 33.7031 26.4651 33.7031 26.0339C33.7031 25.6025 33.3533 25.2527 32.9219 25.2527Z" fill="black"/>
<path d="M32.9219 29.7996H23.0391C22.6077 29.7996 22.2578 30.1492 22.2578 30.5808C22.2578 31.0122 22.6077 31.3621 23.0391 31.3621H32.9219C33.3533 31.3621 33.7031 31.0122 33.7031 30.5808C33.7031 30.1492 33.3533 29.7996 32.9219 29.7996Z" fill="black"/>
<path d="M32.9219 16.1587H23.0391C22.6077 16.1587 22.2578 16.5085 22.2578 16.9399C22.2578 17.3716 22.6077 17.7212 23.0391 17.7212H32.9219C33.3533 17.7212 33.7031 17.3716 33.7031 16.9399C33.7031 16.5085 33.3533 16.1587 32.9219 16.1587Z" fill="black"/>
<path d="M32.9219 20.7056H23.0391C22.6077 20.7056 22.2578 21.0557 22.2578 21.4868C22.2578 21.9185 22.6077 22.2681 23.0391 22.2681H32.9219C33.3533 22.2681 33.7031 21.9185 33.7031 21.4868C33.7031 21.0557 33.3533 20.7056 32.9219 20.7056Z" fill="black"/>
</svg>
