<svg  viewBox="0 0 37 37" fill="none" xmlns="http://www.w3.org/2000/svg">
<g clip-path="url(#clip0)">
<path d="M36.075 16.021C36.0739 16.0201 36.073 16.019 36.0722 16.0182L20.9791 0.925623C20.3357 0.282006 19.4804 -0.0722656 18.5706 -0.0722656C17.6608 -0.0722656 16.8054 0.282006 16.1618 0.925623L1.07662 16.0105C1.07154 16.0156 1.06618 16.021 1.06138 16.0261C-0.259728 17.3548 -0.25747 19.5106 1.06787 20.836C1.67338 21.4418 2.47282 21.7924 3.32787 21.8293C3.36287 21.8327 3.39788 21.8344 3.43316 21.8344H4.03444V32.9413C4.03444 35.1395 5.82302 36.9278 8.02119 36.9278H13.9261C14.5248 36.9278 15.0101 36.4423 15.0101 35.8438V27.1358C15.0101 26.1328 15.8262 25.317 16.8291 25.317H20.312C21.315 25.317 22.1308 26.1328 22.1308 27.1358V35.8438C22.1308 36.4423 22.6161 36.9278 23.2148 36.9278H29.1197C31.3181 36.9278 33.1064 35.1395 33.1064 32.9413V21.8344H33.6642C34.5738 21.8344 35.4291 21.4802 36.073 20.8363C37.3998 19.5089 37.4003 17.3491 36.075 16.021ZM34.5399 19.3034C34.3059 19.5374 33.9948 19.6665 33.6642 19.6665H32.0225C31.4237 19.6665 30.9385 20.1517 30.9385 20.7504V32.9413C30.9385 33.944 30.1227 34.7598 29.1197 34.7598H24.2988V27.1358C24.2988 24.9376 22.5105 23.149 20.312 23.149H16.8291C14.6307 23.149 12.8421 24.9376 12.8421 27.1358V34.7598H8.02119C7.01851 34.7598 6.20241 33.944 6.20241 32.9413V20.7504C6.20241 20.1517 5.71716 19.6665 5.11842 19.6665H3.50487C3.48793 19.6653 3.47127 19.6645 3.45405 19.6642C3.13112 19.6585 2.82822 19.5304 2.60126 19.3031C2.11855 18.8204 2.11855 18.0348 2.60126 17.5518C2.60154 17.5518 2.60154 17.5515 2.60183 17.5513L2.60267 17.5504L17.6952 2.45845C17.9289 2.22443 18.2397 2.09571 18.5706 2.09571C18.9011 2.09571 19.2119 2.22443 19.446 2.45845L34.5351 17.5473C34.5374 17.5496 34.5399 17.5518 34.5422 17.5541C35.0223 18.0376 35.0215 18.8216 34.5399 19.3034Z" fill="black"/>
</g>
<defs>
<clipPath id="clip0">
<rect width="37" height="37" fill="white"/>
</clipPath>
</defs>
</svg>
