<svg viewBox="0 0 93 163" fill="none" xmlns="http://www.w3.org/2000/svg">
<path d="M91.3076 113.78L79.7021 102.384C79.5122 99.3631 78.8971 96.3868 77.8755 93.5375L82.6363 90.6608C84.6176 89.4634 85.458 87.0563 84.6413 84.9173C65.6392 35.1609 68.9173 43.7474 53.5714 3.11515C52.864 1.24256 51.0448 0 49.0113 0H43.7751C41.7426 0 39.9244 1.24096 39.2163 3.11164C22.4714 47.3553 30.1949 27.0523 8.09648 84.917C7.27945 87.056 8.11982 89.4631 10.1014 90.6605L14.8623 93.5372C13.8407 96.3868 13.2253 99.3635 13.0353 102.384L1.43021 113.779C-1.64306 116.797 0.575247 121.932 4.86855 121.932C6.11323 121.932 7.35791 121.465 8.30722 120.533L14.5562 114.397C15.5464 117.442 16.9879 120.338 18.8482 122.991L22.4574 137.165C16.1365 139.976 5.19245 146.532 5.19245 158.224C5.19245 160.862 7.3699 163 10.0557 163H82.6807C85.3666 163 87.544 160.862 87.544 158.224C87.544 146.532 76.6 139.976 70.2791 137.165L73.8883 122.991C75.7486 120.338 77.1898 117.442 78.1799 114.396L84.4293 120.533C86.3289 122.398 89.4076 122.398 91.3069 120.533C93.2068 118.668 93.2068 115.644 91.3076 113.78ZM46.3686 101.362C20.2706 85.5916 50.1347 103.638 18.6099 84.5881L22.935 73.2634L43.8666 85.5951C45.4102 86.5024 47.3269 86.5027 48.8712 85.5951L69.8028 73.2634L74.1279 84.5881C40.4762 104.923 57.8453 94.4267 46.3686 101.362ZM26.4074 64.1704L33.2841 46.1634C41.5844 48.5998 50.7786 48.7507 59.5075 46.2611L66.3327 64.1692L46.3689 75.9306L26.4074 64.1704ZM46.3913 11.5717L56.1006 37.2802C49.9129 38.9274 43.1089 38.9554 36.6952 37.1907L46.3913 11.5717ZM43.8199 111.035C45.3803 111.978 47.3516 111.982 48.9176 111.035L69.3054 98.7159C70.9914 105.334 69.6562 112.539 65.4686 118.144C55.9927 130.843 36.7483 130.848 27.2675 118.142C23.0812 112.538 21.7464 105.334 23.4324 98.7156L43.8199 111.035ZM29.6253 144.648C32.1052 143.909 33.5593 141.389 32.9303 138.92L31.6503 133.893C34.7278 135.374 38.0429 136.384 41.5053 136.871V153.449H16.4107C20.1286 147.688 29.516 144.681 29.6253 144.648ZM76.3455 153.449H51.2318V136.871C54.6948 136.383 58.0096 135.373 61.0871 133.892L59.8068 138.92C59.1781 141.389 60.6319 143.909 63.1119 144.648C63.2302 144.683 72.6429 147.65 76.3455 153.449Z" fill="black"/>
</svg>
